# Blender v2.91.0 OBJ File: ''
# www.blender.org
mtllib shelfandtable.mtl
o Shelf2_Shelf2.001
v 0.747596 0.668937 -0.200000
v 0.747596 0.694999 -0.200000
v 1.047596 0.694999 -0.200000
v 1.047596 0.668937 -0.200000
v 1.047596 0.668937 0.175000
v 1.047596 0.694999 0.175000
v 1.047596 0.694999 0.200000
v 1.047596 0.668937 0.200000
v 0.747596 0.694999 0.200000
v 0.747596 0.668937 0.200000
v 0.747596 0.668937 -0.175000
v 0.747596 0.694999 -0.175000
v 1.047596 -0.000001 0.175000
v 1.047596 -0.000001 0.200000
v 0.747596 -0.000001 0.200000
v 0.747596 -0.000001 0.175000
v 1.047596 0.694999 -0.175000
v 0.747596 0.694999 0.175000
v 1.047596 -0.000001 -0.200000
v 1.047596 -0.000001 -0.175000
v 0.747596 -0.000001 -0.175000
v 0.747596 -0.000001 -0.200000
v 0.747596 0.668937 0.175000
v 1.047596 0.668937 -0.175000
v 1.047596 0.340549 -0.175000
v 1.047596 0.340549 0.175000
v 0.747596 0.340549 0.200000
v 0.747596 0.340549 0.175000
v 1.047596 0.340549 -0.200000
v 0.747596 0.340549 -0.175000
v 0.747596 0.340549 -0.200000
v 1.047596 0.340549 0.200000
v 0.747596 0.026062 -0.200000
v 1.047596 0.026062 -0.200000
v 1.047596 0.026062 0.175000
v 1.047596 0.026062 0.200000
v 0.747596 0.026062 0.200000
v 0.747596 0.026062 -0.175000
v 0.747596 0.026062 0.175000
v 1.047596 0.026062 -0.175000
v 1.028846 0.668937 0.175000
v 1.028846 0.340549 0.175000
v 1.028846 0.668937 -0.175000
v 1.028846 0.340549 -0.175000
v 1.028846 0.026062 0.175000
v 1.028846 0.026062 -0.175000
v 0.747596 0.317962 -0.175000
v 1.028846 0.317962 -0.175000
v 1.028846 0.317962 0.175000
v 0.747596 0.317962 0.175000
v 0.747596 0.317962 -0.200000
v 1.047596 0.317962 -0.200000
v 1.047596 0.317962 0.175000
v 1.047596 0.317962 0.200000
v 0.747596 0.317962 0.200000
v 1.047596 0.317962 -0.175000
v -0.092404 -0.040001 0.500000
v -0.092404 -0.000001 0.500000
v -0.152404 -0.000001 0.500000
v -0.152404 -0.040001 0.500000
v -0.152404 -0.040001 -0.450000
v -0.152404 -0.000001 -0.450000
v -0.152404 -0.000001 -0.500000
v -0.152404 -0.040001 -0.500000
v 0.987596 -0.040001 -0.500000
v 0.987596 -0.000001 -0.500000
v 1.047596 -0.000001 -0.500000
v 1.047596 -0.040001 -0.500000
v 1.047596 -0.040001 0.450000
v 1.047596 -0.000001 0.450000
v 1.047596 -0.000001 0.500000
v 1.047596 -0.040001 0.500000
v -0.092404 -0.040001 -0.500000
v -0.092404 -0.850001 -0.500000
v -0.152404 -0.850001 -0.500000
v 0.987596 -0.000001 0.450000
v 0.987596 -0.000001 0.500000
v 0.987596 -0.000001 -0.450000
v 1.047596 -0.000001 -0.450000
v 0.987596 -0.040001 0.450000
v 0.987596 -0.040001 -0.450000
v 1.047596 -0.040001 -0.450000
v -0.152404 -0.040001 0.450000
v -0.152404 -0.000001 0.450000
v 1.047596 -0.850001 -0.500000
v 0.987596 -0.850001 -0.500000
v -0.092404 -0.000001 0.450000
v -0.092404 -0.000001 -0.450000
v 0.987596 -0.850001 -0.450000
v -0.092404 -0.040001 -0.450000
v -0.092404 -0.040001 0.450000
v -0.092404 -0.000001 -0.500000
v -0.152404 -0.850001 0.500000
v -0.092404 -0.850001 0.500000
v 0.987596 -0.040001 0.500000
v 1.047596 -0.850001 -0.450000
v 0.987596 -0.850001 0.500000
v 0.987596 -0.850001 0.450000
v 1.047596 -0.850001 0.450000
v 1.047596 -0.850001 0.500000
v -0.152404 -0.850001 0.450000
v -0.092404 -0.850001 0.450000
v -0.152404 -0.850001 -0.450000
v -0.092404 -0.850001 -0.450000
vt 0.000000 0.980100
vt 0.000000 0.988423
vt 0.095808 0.988423
vt 0.095808 0.980100
vt 0.662675 0.916227
vt 0.662675 0.924551
vt 0.670659 0.924551
vt 0.670659 0.916227
vt 0.814371 0.596866
vt 0.814371 0.605190
vt 0.910180 0.605190
vt 0.910180 0.596866
vt 0.790419 0.916227
vt 0.790419 0.924551
vt 0.798403 0.924551
vt 0.798403 0.916227
vt 0.185629 0.886227
vt 0.185629 0.894212
vt 0.281437 0.894212
vt 0.281437 0.886227
vt 0.377246 0.774451
vt 0.377246 0.766467
vt 0.281437 0.766467
vt 0.281437 0.774451
vt 0.377246 0.886228
vt 0.281437 0.886228
vt 0.185629 0.766467
vt 0.185629 0.774451
vt 0.281437 0.774451
vt 0.281437 0.766467
vt 0.678643 0.916227
vt 0.678643 0.924551
vt 0.542914 0.916227
vt 0.542914 0.924551
vt 0.550898 0.924551
vt 0.550898 0.916227
vt 0.670659 0.916227
vt 0.670659 0.924551
vt 0.377246 0.894212
vt 0.281437 0.894212
vt 0.550898 0.811353
vt 0.662675 0.811353
vt 0.670659 0.811353
vt 0.678643 0.811353
vt 0.542914 0.811353
vt 0.790419 0.811353
vt 0.798403 0.811353
vt 0.814371 0.491992
vt 0.910180 0.491992
vt 0.670659 0.811353
vt 0.000000 0.875226
vt 0.095808 0.875226
vt 0.000000 0.766467
vt 0.000000 0.774790
vt 0.095808 0.774790
vt 0.095808 0.766467
vt 0.662675 0.702595
vt 0.662675 0.710918
vt 0.670659 0.710918
vt 0.670659 0.702595
vt 0.814371 0.383234
vt 0.814371 0.391557
vt 0.910180 0.391557
vt 0.910180 0.383234
vt 0.790419 0.702595
vt 0.790419 0.710918
vt 0.798403 0.710918
vt 0.798403 0.702595
vt 0.678643 0.702595
vt 0.678643 0.710918
vt 0.542914 0.702595
vt 0.542914 0.710918
vt 0.550898 0.710918
vt 0.550898 0.702595
vt 0.670659 0.702595
vt 0.670659 0.710918
vt 0.095808 0.866902
vt 0.095808 0.971776
vt 0.185629 0.971776
vt 0.185629 0.866902
vt 0.798403 0.803030
vt 0.798403 0.907904
vt 0.910180 0.907904
vt 0.910180 0.803030
vt 0.467066 0.878244
vt 0.467066 0.766467
vt 0.377246 0.766467
vt 0.377246 0.878244
vt 0.377246 0.878243
vt 0.377246 0.990020
vt 0.467066 0.990020
vt 0.467066 0.878243
vt 0.904192 0.698411
vt 0.904192 0.605190
vt 0.814371 0.605190
vt 0.814371 0.698411
vt 0.275449 0.999086
vt 0.275449 0.894212
vt 0.185629 0.894212
vt 0.185629 0.999086
vt 0.798403 0.795816
vt 0.910180 0.795816
vt 0.095808 0.859689
vt 0.185629 0.859689
vt 0.000000 0.868012
vt 0.095808 0.868012
vt 0.662675 0.804140
vt 0.670659 0.804140
vt 0.814371 0.484778
vt 0.910180 0.484778
vt 0.790419 0.804140
vt 0.798403 0.804140
vt 0.542914 0.804140
vt 0.550898 0.804140
vt 0.670659 0.804140
vt 0.678643 0.804140
vt 0.095808 0.766467
vt 0.185629 0.766467
vt 0.798403 0.702595
vt 0.910180 0.702595
vt 0.474280 0.766467
vt 0.467066 0.766467
vt 0.467066 0.878243
vt 0.474280 0.878243
vt 0.474280 0.856287
vt 0.481493 0.856287
vt 0.481493 0.766467
vt 0.474280 0.766467
vt 1.000000 0.000000
vt 0.910180 0.000000
vt 0.910180 0.111776
vt 1.000000 0.111776
vt 1.000000 0.111776
vt 0.910180 0.111776
vt 0.910180 0.223553
vt 1.000000 0.223553
vt 0.012774 0.747305
vt 0.000000 0.747305
vt 0.000000 0.766467
vt 0.012774 0.766467
vt 0.555689 0.686627
vt 0.542914 0.686627
vt 0.542914 0.702595
vt 0.555689 0.702595
vt 0.284232 0.747305
vt 0.271457 0.747305
vt 0.271457 0.766467
vt 0.284232 0.766467
vt 0.651497 0.303393
vt 0.638722 0.303393
vt 0.638722 0.319361
vt 0.651497 0.319361
vt 0.284232 0.383234
vt 0.284232 0.402395
vt 0.542914 0.402395
vt 0.542914 0.383234
vt 0.303393 0.019162
vt 0.319361 0.019162
vt 0.319361 0.000000
vt 0.303393 0.000000
vt 0.000000 0.019162
vt 0.015968 0.019162
vt 0.015968 0.000000
vt 0.000000 0.000000
vt 0.622754 0.364072
vt 0.335329 0.364072
vt 0.335329 0.383234
vt 0.622754 0.383234
vt 0.651497 0.000000
vt 0.638722 0.000000
vt 0.638722 0.015968
vt 0.651497 0.015968
vt 0.555689 0.399202
vt 0.542914 0.399202
vt 0.555689 0.383234
vt 0.542914 0.383234
vt 0.542914 0.766467
vt 0.542914 0.747305
vt 0.015968 0.383234
vt 0.303393 0.383234
vt 0.303393 0.364072
vt 0.015968 0.364072
vt 0.948503 0.641916
vt 0.964471 0.641916
vt 0.964471 0.383234
vt 0.948503 0.383234
vt 0.622754 0.000000
vt 0.335329 0.000000
vt 0.335329 0.019162
vt 0.622754 0.019162
vt 0.000000 0.383234
vt 0.000000 0.364072
vt 0.319361 0.383234
vt 0.319361 0.364072
vt 0.271457 0.766467
vt 0.271457 0.747305
vt 0.271457 0.383234
vt 0.271457 0.402395
vt 0.012774 0.402395
vt 0.000000 0.402395
vt 0.012774 0.383234
vt 0.000000 0.383234
vt 0.638723 0.019162
vt 0.638723 0.364072
vt 0.319361 0.019162
vt 0.319361 0.364072
vt 0.638722 0.357685
vt 0.654691 0.357685
vt 0.654691 0.338523
vt 0.638722 0.338523
vt 0.638722 0.338523
vt 0.654691 0.338523
vt 0.654691 0.319361
vt 0.638722 0.319361
vt 0.670659 0.338523
vt 0.654691 0.338523
vt 0.654691 0.357684
vt 0.670659 0.357684
vt 0.654691 0.357685
vt 0.638722 0.357685
vt 0.638722 0.376846
vt 0.654691 0.376846
vt 0.964471 0.900599
vt 0.980439 0.900599
vt 0.980439 0.641916
vt 0.964471 0.641916
vt 0.271457 0.402395
vt 0.271457 0.383234
vt 0.910180 0.319361
vt 0.910180 0.303393
vt 0.948503 0.900599
vt 0.964471 0.900599
vt 0.964471 0.641916
vt 0.948503 0.641916
vt 0.910180 0.900599
vt 0.929341 0.900599
vt 0.929341 0.641916
vt 0.910180 0.641916
vt 0.910180 0.015968
vt 0.910180 0.000000
vt 0.910180 0.641916
vt 0.929341 0.641916
vt 0.929341 0.383234
vt 0.910180 0.383234
vt 0.929341 0.641916
vt 0.948503 0.641916
vt 0.948503 0.383233
vt 0.929341 0.383233
vt 0.814371 0.399202
vt 0.814371 0.383234
vt 0.964471 0.641916
vt 0.980439 0.641916
vt 0.980439 0.383234
vt 0.964471 0.383234
vt 0.929341 0.900599
vt 0.948503 0.900599
vt 0.948503 0.641916
vt 0.929341 0.641916
vt 0.814371 0.702595
vt 0.814371 0.686627
vn 0.0000 0.0000 -1.0000
vn 1.0000 0.0000 0.0000
vn 0.0000 0.0000 1.0000
vn -1.0000 0.0000 0.0000
vn 0.0000 -1.0000 0.0000
vn 0.0000 1.0000 0.0000
usemtl Material.001
s off
f 1/1/1 2/2/1 3/3/1
f 1/1/1 3/3/1 4/4/1
f 5/5/2 6/6/2 7/7/2
f 5/5/2 7/7/2 8/8/2
f 8/9/3 7/10/3 9/11/3
f 8/9/3 9/11/3 10/12/3
f 11/13/4 12/14/4 2/15/4
f 11/13/4 2/15/4 1/16/4
f 13/17/5 14/18/5 15/19/5
f 13/17/5 15/19/5 16/20/5
f 17/21/6 3/22/6 2/23/6
f 17/21/6 2/23/6 12/24/6
f 6/25/6 17/21/6 12/24/6
f 6/25/6 12/24/6 18/26/6
f 19/27/5 20/28/5 21/29/5
f 19/27/5 21/29/5 22/30/5
f 23/31/4 18/32/4 12/14/4
f 23/31/4 12/14/4 11/13/4
f 4/33/2 3/34/2 17/35/2
f 4/33/2 17/35/2 24/36/2
f 10/37/4 9/38/4 18/32/4
f 10/37/4 18/32/4 23/31/4
f 7/39/6 6/25/6 18/26/6
f 7/39/6 18/26/6 9/40/6
f 20/28/5 13/17/5 16/20/5
f 20/28/5 16/20/5 21/29/5
f 24/36/2 17/35/2 6/6/2
f 24/36/2 6/6/2 5/5/2
f 25/41/2 24/36/2 5/5/2
f 25/41/2 5/5/2 26/42/2
f 27/43/4 10/37/4 23/31/4
f 27/43/4 23/31/4 28/44/4
f 29/45/2 4/33/2 24/36/2
f 29/45/2 24/36/2 25/41/2
f 30/46/4 11/13/4 1/16/4
f 30/46/4 1/16/4 31/47/4
f 32/48/3 8/9/3 10/12/3
f 32/48/3 10/12/3 27/49/3
f 26/42/2 5/5/2 8/8/2
f 26/42/2 8/8/2 32/50/2
f 31/51/1 1/1/1 4/4/1
f 31/51/1 4/4/1 29/52/1
f 22/53/1 33/54/1 34/55/1
f 22/53/1 34/55/1 19/56/1
f 13/57/2 35/58/2 36/59/2
f 13/57/2 36/59/2 14/60/2
f 14/61/3 36/62/3 37/63/3
f 14/61/3 37/63/3 15/64/3
f 21/65/4 38/66/4 33/67/4
f 21/65/4 33/67/4 22/68/4
f 16/69/4 39/70/4 38/66/4
f 16/69/4 38/66/4 21/65/4
f 19/71/2 34/72/2 40/73/2
f 19/71/2 40/73/2 20/74/2
f 15/75/4 37/76/4 39/70/4
f 15/75/4 39/70/4 16/69/4
f 20/74/2 40/73/2 35/58/2
f 20/74/2 35/58/2 13/57/2
f 28/77/1 23/78/1 41/79/1
f 28/77/1 41/79/1 42/80/1
f 42/81/4 41/82/4 43/83/4
f 42/81/4 43/83/4 44/84/4
f 23/85/5 11/86/5 43/87/5
f 23/85/5 43/87/5 41/88/5
f 38/89/6 39/90/6 45/91/6
f 38/89/6 45/91/6 46/92/6
f 47/93/3 38/94/3 46/95/3
f 47/93/3 46/95/3 48/96/3
f 11/97/3 30/98/3 44/99/3
f 11/97/3 44/99/3 43/100/3
f 49/101/4 42/81/4 44/84/4
f 49/101/4 44/84/4 48/102/4
f 50/103/1 28/77/1 42/80/1
f 50/103/1 42/80/1 49/104/1
f 51/105/1 31/51/1 29/52/1
f 51/105/1 29/52/1 52/106/1
f 53/107/2 26/42/2 32/50/2
f 53/107/2 32/50/2 54/108/2
f 54/109/3 32/48/3 27/49/3
f 54/109/3 27/49/3 55/110/3
f 47/111/4 30/46/4 31/47/4
f 47/111/4 31/47/4 51/112/4
f 52/113/2 29/45/2 25/41/2
f 52/113/2 25/41/2 56/114/2
f 55/115/4 27/43/4 28/44/4
f 55/115/4 28/44/4 50/116/4
f 56/114/2 25/41/2 26/42/2
f 56/114/2 26/42/2 53/107/2
f 40/73/2 56/114/2 53/107/2
f 40/73/2 53/107/2 35/58/2
f 37/76/4 55/115/4 50/116/4
f 37/76/4 50/116/4 39/70/4
f 34/72/2 52/113/2 56/114/2
f 34/72/2 56/114/2 40/73/2
f 38/66/4 47/111/4 51/112/4
f 38/66/4 51/112/4 33/67/4
f 36/62/3 54/109/3 55/110/3
f 36/62/3 55/110/3 37/63/3
f 35/58/2 53/107/2 54/108/2
f 35/58/2 54/108/2 36/59/2
f 33/54/1 51/105/1 52/106/1
f 33/54/1 52/106/1 34/55/1
f 39/117/1 50/103/1 49/104/1
f 39/117/1 49/104/1 45/118/1
f 45/119/4 49/101/4 48/102/4
f 45/119/4 48/102/4 46/120/4
f 48/121/2 44/122/2 42/123/2
f 48/121/2 42/123/2 49/124/2
f 28/125/3 50/126/3 49/127/3
f 28/125/3 49/127/3 42/128/3
f 30/46/4 47/111/4 50/116/4
f 30/46/4 50/116/4 28/44/4
f 44/129/6 30/130/6 28/131/6
f 44/129/6 28/131/6 42/132/6
f 47/133/5 48/134/5 49/135/5
f 47/133/5 49/135/5 50/136/5
f 57/137/3 58/138/3 59/139/3
f 57/137/3 59/139/3 60/140/3
f 61/141/4 62/142/4 63/143/4
f 61/141/4 63/143/4 64/144/4
f 65/145/1 66/146/1 67/147/1
f 65/145/1 67/147/1 68/148/1
f 69/149/2 70/150/2 71/151/2
f 69/149/2 71/151/2 72/152/2
f 64/153/1 73/154/1 74/155/1
f 64/153/1 74/155/1 75/156/1
f 76/157/6 77/158/6 71/159/6
f 76/157/6 71/159/6 70/160/6
f 66/161/6 78/162/6 79/163/6
f 66/161/6 79/163/6 67/164/6
f 80/165/5 81/166/5 82/167/5
f 80/165/5 82/167/5 69/168/5
f 68/169/2 67/170/2 79/171/2
f 68/169/2 79/171/2 82/172/2
f 83/173/4 84/174/4 62/142/4
f 83/173/4 62/142/4 61/141/4
f 60/175/4 59/176/4 84/174/4
f 60/175/4 84/174/4 83/173/4
f 65/145/1 68/148/1 85/177/1
f 65/145/1 85/177/1 86/178/1
f 78/162/6 76/157/6 70/160/6
f 78/162/6 70/160/6 79/163/6
f 82/172/2 79/171/2 70/150/2
f 82/172/2 70/150/2 69/149/2
f 62/179/6 84/180/6 87/181/6
f 62/179/6 87/181/6 88/182/6
f 81/183/4 65/184/4 86/185/4
f 81/183/4 86/185/4 89/186/4
f 83/187/5 61/188/5 90/189/5
f 83/187/5 90/189/5 91/190/5
f 63/191/6 62/179/6 88/182/6
f 63/191/6 88/182/6 92/192/6
f 84/180/6 59/193/6 58/194/6
f 84/180/6 58/194/6 87/181/6
f 57/137/3 60/140/3 93/195/3
f 57/137/3 93/195/3 94/196/3
f 64/153/1 63/197/1 92/198/1
f 64/153/1 92/198/1 73/154/1
f 95/199/3 77/200/3 58/138/3
f 95/199/3 58/138/3 57/137/3
f 72/201/3 71/202/3 77/200/3
f 72/201/3 77/200/3 95/199/3
f 88/182/6 87/181/6 76/157/6
f 88/182/6 76/157/6 78/162/6
f 57/203/5 91/190/5 80/165/5
f 57/203/5 80/165/5 95/204/5
f 91/190/5 90/189/5 81/166/5
f 91/190/5 81/166/5 80/165/5
f 92/192/6 88/182/6 78/162/6
f 92/192/6 78/162/6 66/161/6
f 87/181/6 58/194/6 77/158/6
f 87/181/6 77/158/6 76/157/6
f 90/189/5 73/205/5 65/206/5
f 90/189/5 65/206/5 81/166/5
f 73/154/1 92/198/1 66/146/1
f 73/154/1 66/146/1 65/145/1
f 89/207/5 86/208/5 85/209/5
f 89/207/5 85/209/5 96/210/5
f 97/211/5 98/212/5 99/213/5
f 97/211/5 99/213/5 100/214/5
f 93/215/5 101/216/5 102/217/5
f 93/215/5 102/217/5 94/218/5
f 103/219/5 75/220/5 74/221/5
f 103/219/5 74/221/5 104/222/5
f 91/223/2 57/224/2 94/225/2
f 91/223/2 94/225/2 102/226/2
f 72/201/3 95/199/3 97/227/3
f 72/201/3 97/227/3 100/228/3
f 69/149/2 72/152/2 100/229/2
f 69/149/2 100/229/2 99/230/2
f 95/231/4 80/232/4 98/233/4
f 95/231/4 98/233/4 97/234/4
f 82/235/3 81/236/3 89/237/3
f 82/235/3 89/237/3 96/238/3
f 68/169/2 82/172/2 96/239/2
f 68/169/2 96/239/2 85/240/2
f 80/241/1 69/242/1 99/243/1
f 80/241/1 99/243/1 98/244/1
f 90/245/3 61/246/3 103/247/3
f 90/245/3 103/247/3 104/248/3
f 60/175/4 83/173/4 101/249/4
f 60/175/4 101/249/4 93/250/4
f 73/251/2 90/252/2 104/253/2
f 73/251/2 104/253/2 74/254/2
f 83/255/1 91/256/1 102/257/1
f 83/255/1 102/257/1 101/258/1
f 61/141/4 64/144/4 75/259/4
f 61/141/4 75/259/4 103/260/4
