# Blender v2.93.1 OBJ File: ''
# www.blender.org
mtllib link1.mtl
o link1
v 0.080273 -0.093369 0.018992
v 0.077062 -0.095810 0.029297
v 0.072417 -0.135597 0.020824
v -0.008595 -0.000733 0.082414
v -0.012988 -0.096376 0.081652
v -0.001597 -0.098207 0.082460
v 0.081574 0.013387 -0.287996
v 0.077609 0.028901 -0.179099
v 0.082324 -0.000859 0.008924
v 0.034764 -0.075210 -0.288000
v 0.026789 -0.186595 -0.024923
v 0.011602 -0.081859 -0.288000
v 0.036053 -0.097101 0.074319
v 0.048343 -0.000702 0.067619
v 0.018191 -0.000755 0.080855
v -0.033724 -0.185012 -0.021897
v -0.043002 -0.179502 -0.024473
v -0.039162 -0.073027 -0.288000
v -0.063378 -0.000720 0.053386
v -0.075477 -0.000746 0.033699
v -0.064623 -0.095790 0.051764
v 0.063952 -0.164840 -0.018674
v 0.052091 -0.174441 -0.021972
v 0.055669 -0.061096 -0.288000
v 0.000297 0.082382 -0.187767
v 0.026397 0.078283 -0.189983
v 0.013417 0.081392 -0.189337
v -0.067348 -0.161116 0.018149
v -0.073600 -0.132465 0.018977
v -0.077853 -0.120814 0.007731
v -0.063998 -0.166935 0.009203
v -0.049266 -0.178805 0.011679
v -0.058305 -0.169388 0.021702
v 0.011557 -0.188693 -0.029215
v 0.014889 -0.097255 0.081345
v -0.031432 -0.096934 0.076396
v -0.021378 -0.127133 0.074260
v -0.034440 -0.127537 0.069165
v -0.073975 -0.096540 0.036498
v -0.062261 -0.160537 0.032056
v -0.012728 -0.188036 -0.030756
v -0.011999 -0.082051 -0.288000
v -0.038597 -0.000782 0.073742
v -0.049965 0.065811 -0.189192
v -0.082153 -0.000903 0.011275
v -0.079797 -0.093046 0.021422
v -0.080107 0.020433 -0.177714
v -0.082413 0.006039 -0.288000
v -0.082480 -0.090414 0.004417
v 0.069023 -0.000775 0.045641
v 0.077816 -0.000753 0.027873
v 0.042038 0.071111 -0.189689
v 0.082742 -0.005442 -0.288006
v 0.082429 -0.091002 0.005346
v -0.000533 0.082788 -0.288000
v 0.018304 0.080554 -0.288000
v 0.006467 -0.161168 0.069346
v -0.008798 -0.138083 0.074605
v -0.006484 -0.161126 0.069229
v -0.012398 -0.190100 0.024302
v -0.008653 -0.193113 0.011783
v 0.006306 -0.191877 0.020490
v 0.005892 -0.187636 0.033891
v -0.016817 -0.183717 0.039226
v -0.047743 -0.096102 0.067550
v -0.042420 -0.181159 0.019841
v -0.028910 -0.188731 0.012012
v -0.061151 -0.170347 -0.005350
v -0.069819 -0.160829 -0.000477
v -0.080501 -0.019810 -0.288004
v 0.074433 -0.037166 -0.287998
v -0.051055 -0.125571 0.058411
v -0.046384 -0.181396 -0.003364
v -0.034338 -0.187509 -0.001103
v -0.050840 -0.176346 -0.018837
v -0.023324 -0.189854 -0.015636
v -0.078502 0.026285 -0.288000
v -0.038136 0.073248 -0.189987
v 0.075974 -0.131531 0.005488
v 0.067184 0.048518 -0.288000
v 0.051438 0.064755 -0.288000
v 0.056217 0.060700 -0.188553
v 0.069666 -0.161082 0.000156
v 0.060771 -0.169556 0.013382
v 0.056226 -0.174408 -0.005422
v 0.068189 -0.162687 -0.008555
v 0.077734 0.028201 -0.288000
v 0.068341 0.046417 -0.185396
v 0.026806 -0.190023 -0.007153
v 0.045761 -0.181830 0.005088
v 0.031016 -0.187845 0.012509
v 0.007316 -0.194059 0.001420
v 0.013415 -0.192246 -0.013771
v 0.020199 -0.191675 0.007903
v -0.016908 -0.192769 0.000375
v 0.026077 -0.186617 0.025969
v -0.004116 -0.180865 0.047192
v 0.004899 -0.166431 0.065182
v 0.005867 -0.177326 0.052473
v 0.017519 -0.169759 0.059323
v -0.013350 -0.170757 0.059416
v -0.021827 -0.161068 0.066287
v -0.027250 -0.167898 0.057555
v -0.027058 -0.177997 0.044348
v -0.042399 -0.177461 0.031014
v -0.028851 -0.185449 0.026280
v -0.038252 -0.171612 0.046244
v -0.052822 -0.167434 0.036586
v -0.063569 -0.164510 -0.020948
v -0.064413 -0.052530 -0.287998
v 0.038118 -0.181417 -0.026448
v 0.039995 -0.184281 -0.011580
v -0.037315 -0.161226 0.058696
v 0.005691 -0.133547 0.075787
v -0.068380 -0.161637 -0.010880
v -0.018118 0.080585 -0.288000
v -0.013286 0.081368 -0.189024
v -0.023340 0.079198 -0.189894
v -0.032323 0.076116 -0.288000
v 0.069791 -0.097021 0.043942
v 0.067091 -0.136718 0.033792
v 0.034370 0.075226 -0.288000
v 0.031985 -0.180607 0.035548
v 0.043960 -0.180363 0.019657
v 0.051708 -0.171584 0.030444
v -0.050992 -0.161285 0.047515
v 0.060891 -0.096609 0.055690
v 0.060093 -0.135126 0.045608
v 0.058978 -0.161057 0.036994
v 0.049287 -0.096490 0.066227
v 0.048474 -0.128173 0.059912
v 0.032027 -0.126487 0.070527
v 0.033993 -0.161265 0.060768
v 0.032631 -0.166908 0.055901
v 0.049925 -0.160937 0.048819
v 0.000078 -0.191753 -0.021502
v -0.062002 -0.126808 0.045947
v -0.046160 0.068454 -0.288000
v 0.064398 -0.161127 0.026498
v 0.068164 -0.161007 0.014489
v -0.000378 -0.194057 -0.006226
v 0.020729 -0.179052 0.045786
v 0.032429 -0.174567 0.045950
v 0.016956 -0.136608 0.073430
v 0.045854 -0.169342 0.042217
v -0.056812 0.060047 -0.288000
v -0.075200 0.034116 -0.183111
v 0.020538 -0.160798 0.066652
v -0.012364 -0.192502 -0.012905
v -0.059542 0.057204 -0.187767
v -0.068828 0.045826 -0.288000
v -0.068697 0.045876 -0.185220
vn 0.9520 -0.1659 0.2573
vn -0.0714 -0.0047 0.9974
vn 0.9797 0.2003 0.0071
vn 0.2563 -0.8929 -0.3703
vn 0.4019 0.0124 0.9156
vn -0.4055 -0.8454 -0.3475
vn -0.8520 0.0022 0.5236
vn -0.8526 0.0019 0.5225
vn -0.8521 0.0021 0.5233
vn 0.6496 -0.7026 -0.2906
vn 0.1238 0.9502 0.2858
vn 0.2371 0.9343 0.2663
vn -0.9661 -0.2149 0.1428
vn -0.6354 -0.7593 0.1404
vn 0.2286 -0.8999 -0.3715
vn 0.3151 -0.0060 0.9490
vn -0.2664 -0.1559 0.9512
vn -0.3525 -0.1823 0.9179
vn -0.8527 0.0019 0.5223
vn -0.9154 -0.2097 0.3436
vn 0.0052 -0.9244 -0.3814
vn -0.0009 -0.9246 -0.3809
vn 0.0015 -0.9245 -0.3811
vn 0.0075 -0.9243 -0.3816
vn -0.2904 -0.8842 -0.3658
vn -0.2934 -0.8833 -0.3657
vn -0.2853 -0.8858 -0.3660
vn -0.2822 -0.8867 -0.3661
vn -0.2751 0.0058 0.9614
vn -0.2769 0.0053 0.9609
vn -0.2777 0.0051 0.9607
vn -0.2742 0.0061 0.9616
vn 0.0179 0.9555 0.2945
vn -0.5870 0.7917 0.1692
vn -0.9584 0.0069 0.2853
vn -0.9916 0.1293 0.0039
vn -1.0000 0.0036 0.0010
vn 0.4360 0.8734 0.2168
vn 1.0000 0.0011 0.0014
vn 0.1064 0.9513 0.2895
vn 0.9981 0.0619 0.0004
vn 0.0756 0.9971 0.0034
vn 0.2331 0.9724 0.0033
vn -0.0084 -0.2274 0.9738
vn -0.0093 -0.2280 0.9736
vn -0.0095 -0.2281 0.9736
vn -0.0477 -0.9743 0.2203
vn -0.0717 -0.9246 0.3742
vn -0.6347 0.0107 0.7727
vn -0.6831 -0.0035 0.7303
vn -0.5596 -0.7931 0.2405
vn -0.4373 -0.8929 0.1072
vn -0.4372 -0.8927 0.1091
vn -0.4376 -0.8938 0.0984
vn -0.7355 -0.6774 0.0150
vn -0.9811 -0.1858 -0.0547
vn 0.5289 -0.7833 -0.3266
vn 0.7613 -0.5969 -0.2533
vn -0.0976 -0.1753 0.9797
vn -0.1847 -0.1817 0.9658
vn -0.9970 -0.0737 -0.0246
vn -0.6770 -0.1475 0.7210
vn -0.4312 -0.8942 -0.1201
vn -0.4611 -0.8850 0.0641
vn -0.4689 -0.8674 -0.1663
vn -0.2551 -0.9225 -0.2897
vn -0.9818 0.1897 -0.0042
vn -0.5132 0.8367 0.1911
vn 0.9865 -0.1573 -0.0448
vn 0.7179 0.6962 -0.0061
vn 0.9632 -0.2523 -0.0926
vn 0.7000 -0.7140 0.0132
vn 0.7017 -0.7124 0.0142
vn 0.6999 -0.7141 0.0131
vn 0.9686 -0.1724 0.1789
vn 0.9680 0.2509 -0.0005
vn 0.7464 0.6570 0.1061
vn 0.5916 0.8062 0.0044
vn 0.3860 -0.9223 0.0195
vn 0.1844 -0.9819 -0.0432
vn 0.1931 -0.9809 -0.0229
vn -0.0535 -0.9985 0.0087
vn 0.0154 -0.9933 0.1145
vn 0.1986 -0.9587 0.2038
vn 0.1660 -0.9387 0.3022
vn -0.0584 -0.9067 0.4177
vn 0.1045 -0.7511 0.6518
vn -0.2337 -0.6902 0.6849
vn 0.0533 -0.8731 0.4846
vn -0.1780 -0.8139 0.5530
vn -0.1631 -0.8173 0.5526
vn -0.3649 -0.8474 0.3857
vn -0.3946 -0.8167 0.4211
vn -0.5681 -0.7626 0.3094
vn -0.5545 -0.7897 0.2625
vn -0.2930 -0.8733 0.3892
vn -0.4100 -0.8656 0.2874
vn -0.3834 -0.8997 0.2086
vn -0.9675 -0.2199 0.1249
vn -0.6221 -0.7227 -0.3011
vn 0.3483 -0.8670 -0.3565
vn 0.8109 -0.5404 -0.2246
vn 0.3419 -0.9227 -0.1783
vn -0.4258 -0.2352 0.8737
vn -0.3497 -0.2099 0.9130
vn -0.4770 -0.1574 0.8647
vn -0.4772 -0.0113 0.8787
vn -0.0207 -0.1896 0.9816
vn -0.9879 -0.0082 0.1547
vn -0.9332 -0.0041 0.3594
vn -0.2065 -0.9635 0.1702
vn -0.2085 -0.9704 0.1217
vn -0.2912 -0.9561 0.0314
vn -0.8821 -0.4338 -0.1834
vn -0.1244 0.9922 -0.0018
vn -0.0888 0.9529 0.2898
vn -0.0942 0.9527 0.2890
vn -0.0855 0.9531 0.2904
vn -0.0977 0.9525 0.2884
vn -0.2220 0.9365 0.2713
vn -0.2241 0.9362 0.2707
vn -0.2207 0.9368 0.2716
vn -0.3731 0.9278 0.0050
vn 0.8848 0.4659 -0.0008
vn 0.8866 0.4624 -0.0016
vn 0.8875 0.4609 -0.0019
vn 0.8744 0.4822 0.0544
vn 0.8961 -0.0005 0.4438
vn 0.8963 -0.0005 0.4435
vn 0.8959 -0.0006 0.4442
vn 0.8882 -0.1696 0.4270
vn 0.9783 -0.1976 -0.0623
vn 0.6997 -0.7143 0.0129
vn 0.6765 -0.7250 -0.1291
vn 0.6476 -0.7449 -0.1603
vn 0.6137 -0.7876 0.0549
vn 0.7618 0.6477 0.0047
vn 0.4167 0.9090 0.0055
vn 0.4026 0.8873 0.2249
vn 0.3147 0.9492 -0.0040
vn 0.1178 0.9930 -0.0026
vn 0.3197 -0.9468 0.0364
vn 0.2586 -0.9488 0.1815
vn 0.4624 -0.8206 0.3358
vn -0.2378 -0.7732 0.5879
vn -0.3902 -0.6924 0.6069
vn -0.4750 -0.6579 0.5845
vn -0.1836 -0.2408 0.9530
vn -0.0091 -0.6188 0.7855
vn -0.0082 -0.2273 0.9738
vn -0.0251 -0.7599 0.6495
vn -0.3322 -0.7516 0.5699
vn -0.0293 -0.9533 0.3007
vn -0.7018 -0.6880 0.1847
vn -0.5433 -0.7756 -0.3213
vn -0.5993 -0.7383 -0.3094
vn -0.6322 -0.7727 0.0575
vn 0.5042 -0.7979 -0.3304
vn 0.7970 -0.0043 0.6040
vn 0.7283 0.0101 0.6852
vn 0.8290 -0.2081 0.5190
vn 0.0602 0.0042 0.9982
vn 0.0649 0.0032 0.9979
vn 0.0581 0.0046 0.9983
vn 0.0673 0.0028 0.9977
vn 0.0763 -0.1698 0.9825
vn 0.5219 -0.0073 0.8530
vn 0.5160 -0.2043 0.8319
vn 0.4700 -0.6388 0.6092
vn -0.9818 -0.1348 0.1341
vn -0.9869 -0.1550 -0.0441
vn -0.5218 -0.7031 0.4830
vn -0.0016 -0.9287 -0.3708
vn -0.4375 -0.8939 0.0978
vn -0.2203 -0.9187 0.3277
vn -0.4678 -0.8711 -0.1496
vn -0.8042 -0.5490 -0.2277
vn -0.9498 -0.2934 -0.1086
vn -0.7139 -0.6849 -0.1457
vn -0.7292 -0.1852 0.6588
vn -0.0748 0.9972 0.0047
vn -0.2112 0.9774 0.0026
vn -0.2254 0.9360 0.2704
vn -0.5321 0.8467 0.0022
vn -0.3639 0.9010 0.2361
vn -0.3804 0.8951 0.2326
vn 0.8957 -0.0007 0.4447
vn 0.9111 -0.2070 0.3563
vn 0.9148 -0.1834 0.3599
vn 0.9642 -0.2037 0.1696
vn 0.6436 0.7507 0.1489
vn 0.9514 -0.2884 -0.1083
vn 0.9795 -0.1556 0.1278
vn 0.9688 -0.2253 0.1027
vn 0.7486 -0.6580 0.0819
vn 0.5229 0.8523 -0.0051
vn 0.5744 0.8007 0.1700
vn 0.1224 -0.9853 0.1193
vn 0.0839 -0.9929 -0.0848
vn 0.4060 -0.8657 0.2926
vn 0.1160 -0.8684 0.4820
vn -0.3371 -0.6285 0.7009
vn 0.2835 -0.7625 0.5815
vn 0.2842 -0.7626 0.5812
vn 0.2834 -0.7625 0.5816
vn 0.2765 -0.7604 0.5876
vn 0.1418 -0.2210 0.9649
vn -0.1449 -0.6536 0.7428
vn -0.0466 -0.7868 0.6155
vn -0.6152 -0.2310 0.7538
vn -0.4987 -0.7551 0.4257
vn -0.6551 -0.6794 0.3305
vn -0.7055 -0.6488 0.2851
vn -0.7919 -0.6031 0.0957
vn -0.7517 -0.6574 -0.0529
vn -0.6550 -0.7354 -0.1737
vn 0.4348 -0.8891 0.1433
vn 0.7144 -0.1910 0.6732
vn 0.7123 -0.1960 0.6739
vn 0.7142 -0.1915 0.6733
vn 0.7121 -0.1967 0.6740
vn 0.2818 -0.6644 0.6922
vn 0.2821 -0.6647 0.6918
vn 0.2807 -0.6628 0.6942
vn 0.5194 -0.1797 0.8354
vn 0.5192 -0.1799 0.8355
vn 0.5203 -0.1792 0.8350
vn 0.6722 -0.0041 0.7404
vn 0.4645 -0.7985 0.3829
vn 0.4293 -0.7889 0.4398
vn 0.4670 -0.6749 0.5713
vn -0.2180 -0.2205 0.9507
vn -0.5492 -0.1906 0.8137
vn -0.9072 -0.1920 0.3743
vn -0.9322 -0.1665 0.3214
vn -0.8577 -0.1902 0.4777
vn -0.7259 -0.2019 0.6576
vn -0.9668 -0.1641 0.1956
vn 0.1002 -0.9669 -0.2345
vn -0.2837 -0.9570 -0.0606
vn -0.2410 -0.9456 0.2185
vn -0.6195 0.7850 -0.0029
vn -0.9372 0.3476 0.0291
vn -0.3001 0.9539 -0.0025
vn 0.8839 0.4676 -0.0004
vn 0.9298 -0.2278 0.2893
vn 0.6609 -0.7011 0.2677
vn 0.6585 -0.6691 0.3445
vn 0.2792 0.9245 0.2597
vn 0.3914 -0.8923 0.2251
vn 0.2443 -0.8821 0.4027
vn 0.1710 -0.7929 0.5848
vn -0.5488 -0.2050 0.8104
vn 0.4313 -0.7191 0.5448
vn 0.3107 -0.8277 0.4674
vn 0.1887 -0.2390 0.9525
vn -0.0646 -0.6892 0.7217
vn -0.6575 -0.6042 0.4501
vn -0.5885 -0.8032 -0.0927
vn -0.6009 -0.7990 0.0226
vn 0.3807 -0.8979 -0.2210
vn 0.5356 -0.8422 -0.0615
vn 0.3983 -0.9172 -0.0029
vn 0.4919 -0.8413 -0.2241
vn 0.5840 -0.7822 0.2172
vn 0.7821 -0.1729 0.5986
vn 0.7716 -0.2302 0.5930
vn 0.5205 -0.1791 0.8349
vn 0.6624 -0.1628 0.7313
vn 0.5861 -0.2364 0.7750
vn -0.8368 -0.1684 0.5209
vn -0.1724 -0.9564 -0.2358
vn -0.3577 -0.9258 -0.1218
vn -0.4844 0.8748 -0.0031
vn -0.7777 0.6286 0.0007
vn -0.8693 0.4910 0.0574
vn 0.7235 -0.6542 0.2203
vn 0.9879 -0.0050 0.1552
vn -0.0555 -0.9969 0.0554
vn -0.2122 -0.9729 -0.0922
vn 0.0490 -0.9878 -0.1475
vn 0.3119 -0.1635 0.9359
vn 0.1677 -0.6574 0.7347
vn 0.1605 -0.6414 0.7502
vn -0.7922 -0.2272 0.5664
vn 0.5521 -0.8226 -0.1363
vn 0.5740 -0.8046 0.1520
vn 0.3833 -0.2294 0.8947
vn 0.3199 -0.2114 0.9236
vn -0.1072 -0.9650 -0.2393
vn 0.2487 -0.9510 -0.1837
vn 0.1990 -0.9495 -0.2424
vn -0.6681 0.7440 0.0029
vn -0.6494 0.7466 0.1442
vn -0.7638 0.6454 -0.0025
vn -0.7628 0.6389 0.0999
vn -0.8962 0.4436 -0.0049
vn 0.8643 -0.2292 0.4478
vn 0.8334 -0.1894 0.5191
vn 0.5981 -0.6785 0.4265
vn 0.5975 -0.6539 0.4641
vn 0.9728 0.0036 0.2315
vn 0.9549 -0.0031 0.2968
vn -0.0988 -0.9936 -0.0538
vn 0.2008 -0.8960 0.3962
vn 0.2807 -0.6625 0.6944
vn 0.2972 -0.1732 0.9390
vn -0.9407 0.3391 0.0043
vn -0.0443 -0.9876 -0.1503
vn 0.1521 -0.1872 0.9705
vn -0.8750 0.4840 0.0009
vn -0.0000 -0.0001 -1.0000
vn 0.0000 0.0000 -1.0000
vn -0.0000 -0.0002 -1.0000
vn -0.0000 0.0001 -1.0000
vn 0.0003 -0.0000 -1.0000
vn -0.0004 0.0001 -1.0000
usemtl DefaultMaterial.002
s 1
f 1//1 2//1 3//1
f 4//2 5//2 6//2
f 7//3 8//3 9//3
f 10//4 11//4 12//4
f 13//5 14//5 15//5
f 16//6 17//6 18//6
f 19//7 20//8 21//9
f 22//10 23//10 24//10
f 25//11 15//11 14//11
f 26//12 27//12 14//12
f 28//13 29//13 30//13
f 31//14 32//14 33//14
f 11//15 34//15 12//15
f 35//16 13//16 15//16
f 36//17 37//17 5//17
f 38//18 37//18 36//18
f 20//8 39//19 21//9
f 40//20 29//20 28//20
f 34//21 41//22 42//23
f 34//21 42//23 12//24
f 16//25 18//26 42//27
f 41//28 16//25 42//27
f 43//29 5//30 4//31
f 43//29 36//32 5//30
f 4//33 15//33 25//33
f 20//34 44//34 45//34
f 45//35 46//35 20//35
f 47//36 48//36 45//36
f 49//37 45//37 48//37
f 50//38 51//38 52//38
f 53//39 9//39 54//39
f 27//40 25//40 14//40
f 53//41 7//41 9//41
f 27//42 55//42 25//42
f 27//43 26//43 56//43
f 57//44 58//45 59//46
f 60//47 61//47 62//47
f 63//48 64//48 60//48
f 19//49 65//49 43//49
f 65//50 19//50 21//50
f 32//51 66//51 33//51
f 67//52 66//53 32//54
f 68//55 31//55 69//55
f 30//56 70//56 69//56
f 23//57 10//57 24//57
f 22//58 24//58 71//58
f 6//59 5//59 58//59
f 58//60 5//60 37//60
f 70//61 49//61 48//61
f 72//62 65//62 21//62
f 73//63 16//63 74//63
f 73//64 74//64 32//64
f 16//65 75//65 17//65
f 16//66 41//66 76//66
f 77//67 48//67 47//67
f 44//68 20//68 78//68
f 53//69 54//69 79//69
f 80//70 81//70 82//70
f 83//71 71//71 53//71
f 84//72 85//73 86//74
f 1//75 3//75 79//75
f 87//76 8//76 7//76
f 82//77 9//77 88//77
f 82//78 81//78 52//78
f 89//79 90//79 91//79
f 92//80 93//80 89//80
f 92//81 89//81 94//81
f 95//82 92//82 61//82
f 61//83 92//83 62//83
f 94//84 96//84 62//84
f 63//85 62//85 96//85
f 97//86 64//86 63//86
f 98//87 99//87 100//87
f 101//88 102//88 103//88
f 97//89 63//89 99//89
f 64//90 101//90 104//90
f 97//91 101//91 64//91
f 104//92 105//92 106//92
f 104//93 107//93 105//93
f 105//94 108//94 33//94
f 105//95 33//95 66//95
f 106//96 64//96 104//96
f 105//97 66//97 106//97
f 106//98 66//98 67//98
f 69//99 28//99 30//99
f 109//100 110//100 75//100
f 11//101 10//101 111//101
f 86//102 22//102 71//102
f 11//103 112//103 89//103
f 113//104 102//104 38//104
f 37//105 38//105 102//105
f 65//106 38//106 36//106
f 65//107 36//107 43//107
f 114//108 6//108 58//108
f 45//109 49//109 46//109
f 39//110 20//110 46//110
f 61//111 60//111 67//111
f 95//112 61//112 67//112
f 95//113 67//113 74//113
f 115//114 70//114 110//114
f 55//115 116//115 117//115
f 25//116 43//117 4//118
f 117//119 43//117 25//116
f 117//120 19//121 43//122
f 78//123 118//123 119//123
f 80//124 8//125 87//126
f 8//127 88//127 9//127
f 2//128 51//129 50//130
f 120//131 121//131 2//131
f 83//132 53//132 79//132
f 84//72 86//74 83//133
f 22//134 86//134 85//134
f 22//135 85//135 23//135
f 90//136 85//136 84//136
f 88//137 80//137 82//137
f 122//138 26//138 52//138
f 26//139 50//139 52//139
f 122//140 56//140 26//140
f 55//141 27//141 56//141
f 94//142 89//142 91//142
f 96//143 94//143 91//143
f 123//144 124//144 125//144
f 103//145 104//145 101//145
f 103//146 113//146 107//146
f 113//147 126//147 107//147
f 58//148 102//148 59//148
f 57//149 59//149 98//149
f 58//45 57//44 114//150
f 101//151 99//151 98//151
f 107//152 104//152 103//152
f 60//153 62//153 63//153
f 33//154 28//154 31//154
f 75//155 18//155 17//155
f 75//156 110//156 18//156
f 68//157 32//157 31//157
f 111//158 10//158 23//158
f 127//159 120//159 50//159
f 127//160 50//160 14//160
f 128//161 129//161 121//161
f 6//162 15//163 4//164
f 6//162 35//165 15//163
f 35//166 6//166 114//166
f 13//167 130//167 14//167
f 131//168 132//168 133//168
f 134//169 135//169 133//169
f 46//170 49//170 30//170
f 30//171 49//171 70//171
f 126//172 108//172 107//172
f 136//173 41//173 34//173
f 74//174 67//52 32//54
f 106//175 60//175 64//175
f 75//176 16//176 73//176
f 109//177 115//177 110//177
f 115//178 69//178 70//178
f 115//179 109//179 68//179
f 137//180 72//180 21//180
f 25//181 55//181 117//181
f 118//182 117//182 116//182
f 19//121 117//120 118//183
f 78//184 138//184 44//184
f 78//185 19//185 118//185
f 20//186 19//186 78//186
f 120//187 2//128 50//130
f 3//188 121//188 139//188
f 2//189 121//189 3//189
f 140//190 79//190 3//190
f 82//191 51//191 9//191
f 83//192 86//192 71//192
f 1//193 79//193 54//193
f 140//194 83//194 79//194
f 83//195 140//195 84//195
f 81//196 122//196 52//196
f 51//197 82//197 52//197
f 62//198 92//198 94//198
f 92//199 141//199 93//199
f 96//200 124//200 123//200
f 99//201 63//201 142//201
f 113//202 103//202 102//202
f 142//203 143//204 134//205
f 134//205 100//206 142//203
f 114//207 57//207 144//207
f 101//208 59//208 102//208
f 97//209 99//209 101//209
f 126//210 113//210 72//210
f 108//211 105//211 107//211
f 40//212 33//212 108//212
f 33//213 40//213 28//213
f 31//214 28//214 69//214
f 69//215 115//215 68//215
f 75//216 68//216 109//216
f 90//217 124//217 91//217
f 127//218 131//219 128//220
f 131//219 135//221 128//220
f 100//222 134//223 133//224
f 131//225 130//226 13//227
f 130//228 127//228 14//228
f 123//229 125//229 145//229
f 123//230 145//230 143//230
f 134//231 145//231 135//231
f 58//232 37//232 102//232
f 72//233 38//233 65//233
f 29//234 40//234 39//234
f 39//235 46//235 29//235
f 137//236 39//236 40//236
f 137//237 126//237 72//237
f 46//238 30//238 29//238
f 136//239 34//239 93//239
f 76//240 95//240 74//240
f 106//241 67//241 60//241
f 138//242 146//242 44//242
f 147//243 47//243 45//243
f 118//244 116//244 119//244
f 80//124 88//245 8//125
f 3//246 139//246 140//246
f 125//247 84//247 139//247
f 129//248 125//248 139//248
f 26//249 14//249 50//249
f 96//250 91//250 124//250
f 142//251 96//251 123//251
f 100//252 99//252 142//252
f 72//253 113//253 38//253
f 143//254 145//254 134//254
f 142//255 123//255 143//255
f 144//256 57//256 148//256
f 101//257 98//257 59//257
f 126//258 40//258 108//258
f 73//259 68//259 75//259
f 73//260 32//260 68//260
f 11//261 111//261 112//261
f 90//262 112//262 85//262
f 112//263 90//263 89//263
f 112//264 111//264 23//264
f 124//265 84//265 125//265
f 127//266 128//266 120//266
f 129//267 128//267 135//267
f 13//227 132//268 131//225
f 130//269 131//269 127//269
f 131//270 133//270 135//270
f 137//271 21//271 39//271
f 41//272 149//272 76//272
f 74//273 16//273 76//273
f 119//274 138//274 78//274
f 150//275 151//275 152//275
f 152//276 147//276 45//276
f 140//277 139//277 84//277
f 1//278 54//278 9//278
f 141//279 92//279 95//279
f 76//280 149//280 95//280
f 136//281 93//281 141//281
f 132//282 13//282 35//282
f 148//283 98//283 100//283
f 148//284 57//284 98//284
f 40//285 126//285 137//285
f 112//286 23//286 85//286
f 90//287 84//287 124//287
f 148//288 133//288 132//288
f 144//289 148//289 132//289
f 136//290 149//290 41//290
f 93//291 11//291 89//291
f 11//292 93//292 34//292
f 44//293 146//293 150//293
f 44//294 150//294 45//294
f 146//295 151//295 150//295
f 45//296 150//296 152//296
f 147//297 151//297 77//297
f 129//298 139//298 121//298
f 128//299 121//299 120//299
f 145//300 125//300 129//300
f 129//301 135//301 145//301
f 1//302 9//302 51//302
f 51//303 2//303 1//303
f 95//304 149//304 141//304
f 142//305 63//305 96//305
f 100//222 133//224 148//306
f 132//307 35//307 144//307
f 77//308 47//308 147//308
f 136//309 141//309 149//309
f 144//310 35//310 114//310
f 147//311 152//311 151//311
f 71//312 24//313 151//313
f 151//313 56//313 122//313
f 116//313 55//313 151//313
f 122//313 81//313 151//313
f 12//313 42//313 151//313
f 151//313 10//313 12//313
f 42//313 18//313 151//313
f 151//313 24//313 10//313
f 151//313 80//313 87//314
f 151//313 55//313 56//313
f 7//314 53//315 151//313
f 18//313 110//316 151//313
f 48//317 77//313 151//313
f 146//313 138//313 151//313
f 81//313 80//313 151//313
f 53//315 71//312 151//313
f 151//313 110//316 70//315
f 119//313 116//313 151//313
f 151//313 138//313 119//313
f 151//313 87//314 7//314
f 70//315 48//317 151//313
